<svg width="20" height="19" viewBox="0 0 20 19" fill="none" xmlns="http://www.w3.org/2000/svg">
<path d="M2 19L15.307 19C15.7139 18.9986 16.1108 18.8738 16.4452 18.6421C16.7796 18.4103 17.0359 18.0825 17.18 17.702L19.937 10.351C19.9789 10.2387 20.0002 10.1198 20 10V8C20 6.897 19.103 6 18 6L12.388 6L13.51 2.633C13.61 2.33236 13.6374 2.01229 13.5897 1.69905C13.5421 1.3858 13.4209 1.08832 13.236 0.830999C12.86 0.310999 12.254 0 11.612 0H10C9.703 0 9.422 0.132 9.231 0.360001L4.531 6H2C0.896997 6 -1.90735e-06 6.897 -1.90735e-06 8V17C-1.90735e-06 18.103 0.896997 19 2 19ZM10.469 2H11.614L10.052 6.684C10.002 6.83425 9.98831 6.99424 10.0122 7.1508C10.0361 7.30735 10.0968 7.456 10.1894 7.5845C10.2819 7.713 10.4037 7.81767 10.5446 7.88991C10.6856 7.96215 10.8416 7.99988 11 8L18 8V9.819L15.307 17H6L6 7.362L10.469 2ZM4 8V17L2 17L1.999 8H4Z" fill="#161616"/>
</svg>
