<svg xmlns="http://www.w3.org/2000/svg" width="134" height="42" fill="none" viewBox="0 0 134 42"><path fill="#4f46e5" d="M6.15 6.15a21 21 0 1 0 29.699 29.7A21 21 0 0 0 6.15 6.15m22.516 22.516a10.833 10.833 0 1 1-15.321-15.319 10.833 10.833 0 0 1 15.321 15.319"/><path fill="#4f46e5" d="M10.649 10.918c.288-.293.484-.667.564-1.075s.04-.83-.114-1.215a2.1 2.1 0 0 0-.755-.944 2.01 2.01 0 0 0-2.279 0c-.337.231-.6.56-.754.944a2.15 2.15 0 0 0-.115 1.215c.08.408.276.782.564 1.075.384.392.903.611 1.445.611.54 0 1.06-.22 1.444-.61"/><path fill="#181818" d="M50 30V12h4.084v14.165H62V30zM74.053 27.92c-.58 1.28-1.898 2.08-3.536 2.08C66.663 30 64 27.042 64 22.968 64 19.026 66.505 16 70.384 16c2.35 0 3.378 1.307 3.644 1.917v-1.53h3.867v10.87c0 1.224.08 2.076.105 2.37h-3.84a11.5 11.5 0 0 1-.108-1.573zm-3.009-1.416c1.61 0 2.984-1.279 2.984-3.514 0-2.291-1.346-3.49-2.984-3.49-1.715 0-3.008 1.199-3.008 3.49 0 2.182 1.35 3.515 3.008 3.515M100.052 27.92c-.58 1.28-1.897 2.08-3.535 2.08C92.663 30 90 27.042 90 22.968 90 19.026 92.505 16 96.384 16c2.35 0 3.378 1.307 3.644 1.917v-1.53h3.867v10.87c0 1.224.08 2.076.105 2.37h-3.84a12 12 0 0 1-.108-1.573zm-3.008-1.416c1.61 0 2.984-1.279 2.984-3.514 0-2.291-1.346-3.49-2.984-3.49-1.715 0-3.008 1.199-3.008 3.49 0 2.182 1.35 3.515 3.008 3.515M130.052 27.92c-.58 1.28-1.897 2.08-3.535 2.08-3.854 0-6.517-2.958-6.517-7.032 0-3.942 2.506-6.968 6.384-6.968 2.351 0 3.378 1.307 3.644 1.917v-1.53h3.867v10.87c0 1.224.08 2.076.105 2.37h-3.84a12 12 0 0 1-.108-1.573zm-3.008-1.416c1.611 0 2.984-1.279 2.984-3.514 0-2.291-1.346-3.49-2.984-3.49-1.715 0-3.008 1.199-3.008 3.49 0 2.182 1.351 3.515 3.008 3.515M85.683 17.566H88v3.267h-2.317v4.572c0 1.008.525 1.286 1.312 1.286q.484-.008.955-.123v3.087c-.142.075-.75.345-1.884.345-2.46 0-3.964-1.5-3.964-3.934v-5.233H80v-3.267h.597c1.25 0 1.84-.862 1.84-1.992V14h3.249zM109.909 30H106V16.356h3.769v1.563c.695-1.29 2.265-1.92 3.576-1.92 3.215 0 4.655 2.443 4.655 5.434V30h-3.899v-7.854c0-1.345-.667-2.359-2.083-2.359-1.285 0-2.109 1.014-2.109 2.388z"/></svg>